<?xml version="1.0" encoding="UTF-8" standalone="no"?><!DOCTYPE svg PUBLIC "-//W3C//DTD SVG 1.1//EN" "http://www.w3.org/Graphics/SVG/1.1/DTD/svg11.dtd"><svg width="100%" height="100%" viewBox="0 0 19 19" version="1.1" xmlns="http://www.w3.org/2000/svg" xmlns:xlink="http://www.w3.org/1999/xlink" xml:space="preserve" xmlns:serif="http://www.serif.com/" style="fill-rule:evenodd;clip-rule:evenodd;stroke-linejoin:round;stroke-miterlimit:1.41421;"><rect id="Plan-de-travail1" serif:id="Plan de travail1" x="0" y="0" width="18.04" height="18.033" style="fill:none;"/><clipPath id="_clip1"><rect x="0" y="0" width="18.04" height="18.033"/></clipPath><g clip-path="url(#_clip1)"><path d="M18.019,7.12l-6.78,0l2.74,-2.82c-2.73,-2.7 -7.15,-2.8 -9.88,-0.1c-2.73,2.71 -2.73,7.08 0,9.79c2.73,2.71 7.15,2.71 9.88,0c1.36,-1.34 2.04,-2.91 2.04,-4.89l2,0c0,1.98 -0.88,4.55 -2.64,6.29c-3.51,3.48 -9.21,3.48 -12.72,0c-3.5,-3.47 -3.53,-9.11 -0.02,-12.58c3.51,-3.47 9.14,-3.47 12.65,0l2.73,-2.81l0,7.12Zm-8.5,-2.12l0,4.25l3.5,2.08l-0.72,1.21l-4.28,-2.54l0,-5l1.5,0Z" style="fill-rule:nonzero;"/></g></svg>