<?xml version="1.0" encoding="UTF-8" standalone="no"?><!DOCTYPE svg PUBLIC "-//W3C//DTD SVG 1.1//EN" "http://www.w3.org/Graphics/SVG/1.1/DTD/svg11.dtd"><svg width="100%" height="100%" viewBox="0 0 55 61" version="1.1" xmlns="http://www.w3.org/2000/svg" xmlns:xlink="http://www.w3.org/1999/xlink" xml:space="preserve" xmlns:serif="http://www.serif.com/" style="fill-rule:evenodd;clip-rule:evenodd;stroke-linejoin:round;stroke-miterlimit:1.41421;"><rect id="Plan-de-travail1" serif:id="Plan de travail1" x="0" y="0" width="54.627" height="60.012" style="fill:none;"/><clipPath id="_clip1"><rect x="0" y="0" width="54.627" height="60.012"/></clipPath><g clip-path="url(#_clip1)"><g><path d="M23.002,33c0,1.103 0.897,2 2,2c1.103,0 2,-0.897 2,-2c0,-1.103 -0.897,-2 -2,-2c-1.103,0 -2,0.897 -2,2"/><path d="M31.002,27c0,1.103 0.897,2 2,2c1.103,0 2,-0.897 2,-2c0,-1.103 -0.897,-2 -2,-2c-1.103,0 -2,0.897 -2,2"/><path d="M38.504,45.088c4.547,-3.475 7.498,-8.936 7.498,-15.088c0,-4.113 -1.328,-7.914 -3.558,-11.028l-6.009,6.009c0.352,0.595 0.567,1.28 0.567,2.019c0,2.206 -1.794,4 -4,4c-2.205,0 -4,-1.794 -4,-4c0,-2.205 1.795,-4 4,-4c0.74,0 1.424,0.216 2.019,0.567l6.165,-6.165c-3.483,-3.916 -8.542,-6.402 -14.184,-6.402c-10.476,0 -19,8.524 -19,19c0,10.477 8.524,19 19,19c3.597,0 6.95,-1.022 9.821,-2.765l-9.802,-9.801c-0.595,0.351 -1.279,0.566 -2.019,0.566c-2.205,0 -4,-1.794 -4,-4c0,-2.205 1.795,-4 4,-4c2.206,0 4,1.795 4,4c0,0.74 -0.215,1.424 -0.567,2.019l10.069,10.069Z"/><path d="M30.009,54.82c0,0.01 -0.001,0.021 -0.001,0.032c-0.001,0.018 -0.006,0.131 -0.006,0.148c0,1.654 -1.346,3 -3,3c-1.654,0 -3,-1.346 -3.001,-3.094c-0.001,-0.024 -0.002,-0.053 -0.002,-0.086c0.062,0.008 0.124,0.01 0.186,0.017c0.339,0.038 0.681,0.067 1.024,0.092c0.124,0.009 0.246,0.021 0.37,0.028c0.471,0.027 0.945,0.043 1.423,0.043c0.03,0 0.06,-0.003 0.09,-0.003c0.557,-0.002 1.114,-0.026 1.669,-0.065c0.188,-0.013 0.374,-0.033 0.56,-0.05c0.23,-0.021 0.46,-0.035 0.688,-0.062Zm-27.675,-12.45c-0.725,-1.414 -0.217,-3.142 1.129,-3.946c0.008,0.021 0.017,0.041 0.024,0.062c0.16,0.442 0.332,0.879 0.516,1.309c0.016,0.038 0.034,0.075 0.051,0.112c0.172,0.397 0.355,0.788 0.546,1.174c0.041,0.081 0.083,0.16 0.124,0.241c0.184,0.361 0.377,0.718 0.579,1.069c0.033,0.058 0.066,0.116 0.1,0.174c0.239,0.409 0.487,0.812 0.748,1.206c-1.427,0.593 -3.098,-0.004 -3.817,-1.401Zm1.129,-20.794c-1.342,-0.802 -1.853,-2.524 -1.133,-3.937c0.364,-0.714 0.984,-1.244 1.746,-1.491c0.305,-0.099 0.618,-0.148 0.93,-0.148c0.39,0 0.778,0.077 1.145,0.229c-0.261,0.394 -0.508,0.796 -0.747,1.204c-0.035,0.059 -0.068,0.119 -0.102,0.178c-0.201,0.35 -0.393,0.705 -0.577,1.065c-0.041,0.081 -0.084,0.162 -0.125,0.244c-0.189,0.381 -0.37,0.767 -0.54,1.159c-0.019,0.043 -0.04,0.086 -0.058,0.129c-0.183,0.427 -0.353,0.86 -0.512,1.298c-0.008,0.023 -0.019,0.046 -0.027,0.07Zm20.546,-16.397c-0.007,-0.072 -0.007,-0.133 -0.007,-0.179c0,-1.654 1.346,-3 3,-3c1.654,0 3,1.346 3,3c0,0.041 0,0.104 -0.006,0.179c-0.042,-0.005 -0.086,-0.007 -0.129,-0.012c-0.337,-0.038 -0.678,-0.066 -1.02,-0.091c-0.135,-0.01 -0.269,-0.025 -0.404,-0.033c-0.477,-0.027 -0.957,-0.043 -1.441,-0.043c-0.473,0 -0.943,0.016 -1.41,0.042c-0.135,0.008 -0.268,0.021 -0.403,0.031c-0.335,0.024 -0.668,0.052 -1,0.09c-0.06,0.006 -0.121,0.009 -0.18,0.016Zm14.267,42.509c-3.261,2.086 -7.123,3.312 -11.274,3.312c-11.579,0 -21,-9.42 -21,-21c0,-11.579 9.421,-21 21,-21c6.193,0 11.751,2.711 15.598,6.989l2.846,-2.846c-3.509,-3.836 -8.196,-6.571 -13.48,-7.641c0.027,-0.215 0.036,-0.403 0.036,-0.502c0,-2.757 -2.243,-5 -5,-5c-2.757,0 -5,2.243 -5,5c0,0.096 0.009,0.281 0.037,0.497c-5.926,1.198 -11.094,4.502 -14.699,9.09c-0.024,-0.013 -0.042,-0.028 -0.067,-0.041c-1.19,-0.606 -2.545,-0.712 -3.815,-0.3c-1.27,0.412 -2.303,1.295 -2.91,2.485c-1.251,2.456 -0.271,5.473 2.186,6.726c0.044,0.022 0.084,0.032 0.128,0.052c-0.558,2.071 -0.86,4.246 -0.86,6.491c0,2.245 0.302,4.42 0.86,6.491c-0.046,0.021 -0.098,0.037 -0.143,0.06c-2.452,1.26 -3.423,4.28 -2.164,6.732c0.885,1.724 2.64,2.716 4.456,2.716c0.769,0 1.548,-0.178 2.277,-0.552c0.018,-0.009 0.036,-0.023 0.054,-0.033c3.599,4.582 8.757,7.883 14.673,9.085c-0.018,0.203 -0.016,0.38 -0.013,0.501c0,2.757 2.243,5 5,5c2.757,0 5,-2.243 5.003,-5.041c0.005,-0.108 0.012,-0.278 -0.004,-0.48c3.344,-0.683 6.453,-2.021 9.169,-3.897l-2.894,-2.894Z"/><path d="M51.67,42.369c-0.718,1.398 -2.389,1.995 -3.818,1.401c0.031,-0.046 0.057,-0.094 0.087,-0.14c0.196,-0.3 0.385,-0.604 0.568,-0.913c0.07,-0.118 0.141,-0.235 0.21,-0.354c0.168,-0.295 0.328,-0.594 0.484,-0.896c0.071,-0.135 0.144,-0.269 0.212,-0.406c0.143,-0.289 0.277,-0.583 0.409,-0.878c0.067,-0.151 0.139,-0.299 0.204,-0.451c0.128,-0.302 0.245,-0.611 0.362,-0.919c0.049,-0.13 0.106,-0.258 0.153,-0.389c1.346,0.804 1.855,2.532 1.129,3.945m-1.185,-25.22c0.762,0.247 1.382,0.777 1.746,1.491c0.72,1.413 0.209,3.136 -1.132,3.937c-0.542,-1.506 -1.235,-2.953 -2.061,-4.335c-0.186,-0.347 -0.379,-0.689 -0.581,-1.026c0.647,-0.258 1.357,-0.285 2.028,-0.067m0.8,19.402c-0.046,-0.024 -0.1,-0.04 -0.147,-0.062c0.558,-2.071 0.864,-4.244 0.864,-6.489c0,-1.845 -0.208,-3.642 -0.59,-5.374c0.137,-0.05 0.273,-0.096 0.417,-0.169c2.456,-1.252 3.436,-4.269 2.184,-6.725c-0.606,-1.19 -1.64,-2.073 -2.91,-2.485c-1.27,-0.412 -2.625,-0.306 -3.814,0.3c-0.052,0.027 -0.09,0.058 -0.139,0.086c-0.552,-0.235 -1.223,-0.144 -1.685,0.318l-1.594,1.594c2.583,3.49 4.131,7.79 4.131,12.455c0,6.702 -3.168,12.667 -8.072,16.514l2.856,2.856c1.434,-1.171 2.734,-2.499 3.879,-3.955c0.019,0.01 0.033,0.022 0.052,0.032c0.729,0.374 1.508,0.551 2.276,0.551c1.816,0 3.571,-0.991 4.456,-2.715c1.26,-2.453 0.288,-5.472 -2.164,-6.732"/></g></g></svg>