<?xml version="1.0" encoding="UTF-8" standalone="no"?><!DOCTYPE svg PUBLIC "-//W3C//DTD SVG 1.1//EN" "http://www.w3.org/Graphics/SVG/1.1/DTD/svg11.dtd"><svg width="100%" height="100%" viewBox="0 0 30 29" version="1.1" xmlns="http://www.w3.org/2000/svg" xmlns:xlink="http://www.w3.org/1999/xlink" xml:space="preserve" xmlns:serif="http://www.serif.com/" style="fill-rule:evenodd;clip-rule:evenodd;stroke-linejoin:round;stroke-miterlimit:1.41421;"><rect id="Plan-de-travail1" serif:id="Plan de travail1" x="0" y="0" width="29.334" height="28.069" style="fill:none;"/><g><path d="M5.689,6.851c2.247,0.684 4.07,0.878 4.229,0.412c0.175,-0.51 -1.707,-1.618 -4.229,-2.504l0,-1.24c0,-0.276 -0.224,-0.5 -0.5,-0.5c-0.276,0 -0.5,0.224 -0.5,0.5l0,0.912c-2.247,-0.684 -4.069,-0.878 -4.23,-0.412c-0.176,0.511 1.708,1.618 4.23,2.504l0,3.459l1,0.193l0,-3.324Z" style="fill-rule:nonzero;"/><path d="M4.689,25.251l-2.777,1.852c-0.23,0.153 -0.292,0.463 -0.139,0.693c0.097,0.145 0.255,0.223 0.417,0.223c0.095,0 0.191,-0.027 0.276,-0.084l2.723,-1.815l2.723,1.815c0.086,0.057 0.182,0.084 0.277,0.084c0.161,0 0.32,-0.078 0.416,-0.223c0.153,-0.23 0.092,-0.54 -0.139,-0.693l-2.777,-1.852l0,-4.894l-1,-0.192l0,5.086Z" style="fill-rule:nonzero;"/><path d="M5.689,11.193l-1,-0.192l-3.063,-0.591l-0.189,0.981l0.981,0.189l-1.137,5.892l-0.982,-0.189l-0.189,0.98l4.579,0.884l1,0.192l1.001,0.193c0,-0.005 -0.001,-0.009 -0.001,-0.014c0,-3.203 1.897,-5.965 4.622,-7.242l-5.622,-1.083Z" style="fill-rule:nonzero;"/><path d="M24.689,25.251l0,-5.086l-1,0.192l0,4.894l-2.777,1.852c-0.229,0.153 -0.292,0.463 -0.139,0.693c0.097,0.145 0.255,0.223 0.417,0.223c0.095,0 0.191,-0.027 0.276,-0.084l2.723,-1.815l2.723,1.815c0.086,0.057 0.182,0.084 0.277,0.084c0.161,0 0.32,-0.078 0.416,-0.223c0.153,-0.23 0.092,-0.54 -0.139,-0.693l-2.777,-1.852Z" style="fill-rule:nonzero;"/><path d="M24.689,4.523c2.522,-0.886 4.405,-1.993 4.229,-2.504c-0.159,-0.466 -1.982,-0.271 -4.229,0.412l0,-1.912c0,-0.276 -0.224,-0.5 -0.5,-0.5c-0.276,0 -0.5,0.224 -0.5,0.5l0,2.24c-2.521,0.886 -4.404,1.994 -4.229,2.504c0.16,0.466 1.982,0.271 4.229,-0.412l0,5.324l1,-0.193l0,-5.459Z" style="fill-rule:nonzero;"/><path d="M29.266,18.263l-0.189,-0.98l-0.981,0.189l-1.137,-5.892l0.982,-0.189l-0.188,-0.981l-3.064,0.59l-1,0.192l-5.622,1.084c2.726,1.277 4.622,4.039 4.622,7.242c0,0.005 -0.001,0.009 -0.001,0.014l1.001,-0.193l1,-0.192l4.577,-0.884Z" style="fill-rule:nonzero;"/><path d="M21.572,20.767c0.061,-0.339 0.097,-0.686 0.106,-1.039c0.003,-0.07 0.011,-0.139 0.011,-0.209c0,-2.605 -1.427,-4.874 -3.538,-6.079c-0.071,-0.041 -0.142,-0.081 -0.215,-0.119c-0.288,-0.151 -0.591,-0.28 -0.901,-0.391c-0.347,-0.124 -0.705,-0.223 -1.075,-0.29c-0.412,-0.076 -0.836,-0.121 -1.271,-0.121c-0.435,0 -0.858,0.045 -1.271,0.121c-0.37,0.067 -0.727,0.166 -1.075,0.29c-0.31,0.11 -0.612,0.239 -0.901,0.391c-0.072,0.038 -0.143,0.078 -0.214,0.119c-2.112,1.205 -3.539,3.474 -3.539,6.079c0,0.07 0.009,0.139 0.011,0.209c0.011,0.353 0.046,0.7 0.107,1.039c0.348,1.931 1.484,3.584 3.068,4.617l-0.323,0.969l-0.336,1.008c-0.088,0.262 0.054,0.545 0.315,0.633c0.053,0.018 0.106,0.025 0.158,0.025c0.21,0 0.404,-0.133 0.475,-0.342l0.283,-0.852l0.318,-0.953c0.891,0.411 1.879,0.646 2.924,0.646c1.046,0 2.034,-0.235 2.925,-0.646l0.317,0.953l0.284,0.852c0.069,0.209 0.265,0.342 0.474,0.342c0.052,0 0.105,-0.008 0.158,-0.025c0.262,-0.088 0.403,-0.371 0.316,-0.633l-0.336,-1.008l-0.323,-0.969c1.583,-1.033 2.72,-2.687 3.068,-4.617Zm-4.278,4.148c-0.789,0.383 -1.671,0.603 -2.605,0.603c-0.935,0 -1.815,-0.221 -2.606,-0.603c-0.309,-0.15 -0.602,-0.324 -0.879,-0.522c-1.141,-0.818 -1.98,-2.022 -2.33,-3.422c-0.085,-0.34 -0.141,-0.689 -0.165,-1.05c-0.009,-0.134 -0.021,-0.267 -0.021,-0.403c0,-1.898 0.89,-3.591 2.271,-4.691c0.654,-0.521 1.419,-0.904 2.252,-1.117c0.475,-0.12 0.967,-0.191 1.478,-0.191c0.511,0 1.004,0.071 1.477,0.191c0.833,0.213 1.599,0.596 2.252,1.117c1.381,1.1 2.271,2.793 2.271,4.691c0,0.137 -0.012,0.27 -0.021,0.403c-0.023,0.36 -0.08,0.71 -0.165,1.05c-0.35,1.4 -1.19,2.604 -2.329,3.422c-0.276,0.199 -0.571,0.373 -0.88,0.522Z" style="fill-rule:nonzero;"/></g></svg>