<?xml version="1.0" encoding="UTF-8" standalone="no"?><!DOCTYPE svg PUBLIC "-//W3C//DTD SVG 1.1//EN" "http://www.w3.org/Graphics/SVG/1.1/DTD/svg11.dtd"><svg width="100%" height="100%" viewBox="0 0 85 85" version="1.1" xmlns="http://www.w3.org/2000/svg" xmlns:xlink="http://www.w3.org/1999/xlink" xml:space="preserve" xmlns:serif="http://www.serif.com/" style="fill-rule:evenodd;clip-rule:evenodd;stroke-linejoin:round;stroke-miterlimit:1.41421;"><rect id="Plan-de-travail1" serif:id="Plan de travail1" x="0" y="0" width="84.47" height="84.508" style="fill:none;"/><path d="M82.764,76.004l-33.533,-33.533l19.31,-19.31l8.35,-12.812l-0.024,-0.024c1.624,0.219 3.588,-0.482 5.137,-2.03c2.271,-2.272 2.771,-5.458 1.113,-7.115c-1.656,-1.657 -4.842,-1.158 -7.115,1.114c-1.548,1.548 -2.25,3.512 -2.03,5.136l-0.026,-0.027l-12.364,8.798l-19.31,19.31l-19.31,-19.31l-12.657,-8.249c0.357,-1.676 -0.343,-3.792 -1.986,-5.436c-2.275,-2.272 -5.461,-2.771 -7.118,-1.113c-1.657,1.657 -1.158,4.843 1.114,7.115c1.548,1.549 3.512,2.25 5.136,2.03l-0.25,0.25l8.798,12.363l19.31,19.31l-33.533,33.533c-1.922,1.922 -1.922,5.039 0,6.961c1.923,1.922 5.039,1.922 6.961,0l33.533,-33.533l33.533,33.533c1.922,1.922 5.039,1.922 6.961,0c1.922,-1.922 1.922,-5.039 0,-6.961Z" style="fill-rule:nonzero;"/></svg>