<?xml version="1.0" encoding="UTF-8" standalone="no"?><!DOCTYPE svg PUBLIC "-//W3C//DTD SVG 1.1//EN"
  "http://www.w3.org/Graphics/SVG/1.1/DTD/svg11.dtd">
<svg xmlns:serif="http://www.serif.com/" width="100%" height="100%" viewBox="0 0 232 238" version="1.1"
     xmlns="http://www.w3.org/2000/svg" xml:space="preserve"
     style="fill-rule:evenodd;clip-rule:evenodd;stroke-linejoin:round;stroke-miterlimit:1.41421;"><rect id="Plan-de-travail1" serif:id="Plan de travail1" x="0" y="0" width="231.574" height="237.97" style="fill:none;"/>
  <g><path d="M82.83,217.251c-6.918,-9.157 -11.028,-20.547 -11.028,-32.881c0,-5.581 0.846,-10.968 2.407,-16.044l-6.815,-3.494c-0.094,0.153 -0.192,0.301 -0.285,0.456c-0.032,0.053 -0.062,0.109 -0.094,0.162c0.093,0.595 0.069,1.206 -0.096,1.803l-0.189,0.694l0,44.374l9.212,9.212c2.801,-0.643 5.183,-2.189 6.888,-4.282Z" style="fill-rule:nonzero;"/>
    <path
      d="M181.635,215.864c6.014,0 11.316,-4.348 12.324,-10.476c0.082,-0.501 0.14,-0.982 0.215,-1.477l-13.99,3.815c-0.373,0.101 -0.757,0.154 -1.144,0.154c-0.497,0 -0.977,-0.088 -1.428,-0.247l0,7.554c0.639,0.215 1.296,0.396 1.982,0.509c0.686,0.113 1.368,0.168 2.041,0.168Z"
      style="fill-rule:nonzero;"/>
    <path
      d="M169.612,150.857l0,-8.713c-1.815,-0.991 -3.616,-1.836 -5.375,-2.555c-3.16,-0.132 -6.049,-0.622 -8.605,-1.421c5.363,3.396 10.093,7.696 13.98,12.689Z"
      style="fill-rule:nonzero;"/>
    <path d="M186.121,156.906c-2.532,-3.683 -5.452,-6.774 -8.509,-9.329l0,11.65l8.509,-2.321Z"
          style="fill-rule:nonzero;"/>
    <path
      d="M102.461,35.444c2.816,-12.092 14.919,-19.622 27.01,-16.806c12.091,2.815 19.622,14.918 16.806,27.009c-2.816,12.092 -14.918,19.622 -27.01,16.806c-12.091,-2.815 -19.621,-14.918 -16.806,-27.009Z"/>
    <path
      d="M52.716,86.55l26.316,13.494c7.179,-0.531 13.349,-3.132 18.291,-6.03l0,15.41l18.208,9.337c1.226,0.628 2.133,1.698 2.554,3.007c0.423,1.31 0.309,2.707 -0.32,3.931l-2.518,4.915c-0.053,0.104 -0.119,0.196 -0.178,0.295c3.679,-0.784 7.49,-1.205 11.399,-1.205c7.775,0 15.172,1.643 21.875,4.582c-2.046,-1.769 -3.486,-3.92 -4.16,-6.404c-1.577,-5.818 1.334,-12.069 7.231,-17.183l0,-23.413c0.639,0.03 1.294,0.052 1.98,0.053c0.02,0 0.04,0 0.061,0c5.732,0 13.095,-1.206 20.826,-5.273c7.766,-4.064 15.778,-10.96 23.011,-21.744c2.107,-3.135 1.692,-7.218 -0.762,-9.878l32.068,-48.229l-3.331,-2.215l-32.098,48.274c-3.325,-1.104 -7.107,0.076 -9.156,3.125c-6.001,8.905 -11.947,13.749 -17.169,16.499c-5.226,2.737 -9.851,3.431 -13.45,3.439c-2.241,0 -4.064,-0.285 -5.25,-0.549c-0.505,-0.111 -0.885,-0.216 -1.139,-0.294c-1.007,-0.48 -2.13,-0.757 -3.319,-0.757l-38.635,0c-1.498,0 -2.892,0.433 -4.076,1.171c-0.727,0.414 -1.403,0.943 -1.993,1.599l-0.001,-0.001l-0.016,0.017c-0.247,0.278 -3.15,3.352 -7.359,6.195c-4.336,2.975 -9.926,5.483 -15.039,5.432c-4.531,-0.091 -9.118,-1.441 -14.86,-7.539c-2.043,-2.222 -5.05,-3.022 -7.787,-2.355l-39.14,-54.309l-3.245,2.339l38.834,53.89c-2.821,2.626 -3.321,6.818 -1.394,9.995c0.445,-0.124 0.912,-0.19 1.39,-0.19c0.812,0 1.625,0.196 2.351,0.569Z"
      style="fill-rule:nonzero;"/>
    <path
      d="M1.715,192.099l25.486,6.954l0,18.283l-20.536,20.535l7.072,0l15.968,-15.965l8.214,8.215l3.536,-3.536l-9.253,-9.255l0,-16.912l19.715,5.38c1.24,0.338 2.518,-0.392 2.856,-1.632l0.282,-1.034c0.338,-1.238 -0.392,-2.518 -1.632,-2.856l-0.139,-0.038l2.444,-8.957l0,-29.496l-42.573,-11.617c-1.24,-0.338 -2.519,0.392 -2.856,1.631l-1.071,3.926c-0.338,1.239 0.392,2.518 1.632,2.857l0.14,0.038l-7.639,27.995l-0.14,-0.038c-1.24,-0.338 -2.519,0.393 -2.856,1.632l-0.282,1.034c-0.339,1.239 0.392,2.517 1.632,2.856Z"
      style="fill-rule:nonzero;"/>
    <path d="M45.722,237.871l7.018,0l-3.509,-3.509l-3.509,3.509Z" style="fill-rule:nonzero;"/>
    <path
      d="M57.728,162.331l0,50.805l-13.446,13.447l-1.414,1.414l-3.536,3.536l-1.413,1.414l-4.105,4.106l0.817,0.817l8.265,0l1.387,-1.387l3.536,-3.536l1.414,-1.414l11.994,-11.994l18.333,18.331l8.263,0l0.817,-0.817l-15.203,-15.203l-8.707,-8.706l0,-40.062l0,-3.326l0,-2.079l0,-2.774l0,-2.633l0,-1.054l3.757,1.926l6.362,3.263c2.429,-6.959 6.217,-13.285 11.061,-18.646c3.341,-3.697 7.185,-6.928 11.413,-9.605c3.353,-2.122 6.946,-3.895 10.737,-5.255l0.986,-1.923l0.174,0.089c1.55,0.795 3.452,0.183 4.247,-1.368l2.519,-4.913c0.796,-1.55 0.183,-3.452 -1.367,-4.247l-17.296,-8.869l-22.543,-11.557l-22.977,-11.782c-0.434,-0.222 -0.894,-0.324 -1.351,-0.336c-1.176,-0.032 -2.324,0.587 -2.896,1.705l-2.519,4.912c-0.795,1.551 -0.183,3.453 1.367,4.248l0.174,0.089l-17.962,35.027l-0.173,-0.088c-1.551,-0.795 -3.453,-0.182 -4.248,1.368l-0.663,1.294c-0.796,1.55 -0.183,3.452 1.367,4.247l32.829,16.834l0,4.702Z"
      style="fill-rule:nonzero;"/>
    <path d="M189.508,237.096l0.775,0.775l5.656,0l-3.603,-3.603l-2.828,2.828Z" style="fill-rule:nonzero;"/>
    <path
      d="M171.611,217.538l-20.332,20.333l5.658,0l16.67,-16.672l9.536,9.534l2.828,-2.829l-10.36,-10.359l0,-3.236l0,-6.016c-0.726,1.483 -1.512,2.932 -2.364,4.336c-0.521,0.86 -1.069,1.701 -1.636,2.529l0,2.38Z"
      style="fill-rule:nonzero;"/>
    <path
      d="M151.414,134.045c4.775,3.029 12.105,4.271 20.197,3.216l0,16.318c1.368,2 2.601,4.099 3.698,6.277l0.302,-0.083l0,-13.778l0,-9.434c0.784,-0.172 1.572,-0.36 2.363,-0.574c15.188,-4.119 25.544,-14.662 23.134,-23.548c-2.41,-8.886 -16.676,-12.749 -31.861,-8.63c-7.398,2.006 -13.645,5.539 -17.833,9.661c-4.408,4.338 -6.536,9.33 -5.301,13.886c0.742,2.74 2.626,4.992 5.301,6.689Z"
      style="fill-rule:nonzero;"/>
    <path
      d="M177.612,165.083c2.271,6.001 3.524,12.5 3.524,19.287c0,6.788 -1.253,13.285 -3.524,19.287c-0.153,0.406 -0.314,0.808 -0.478,1.209c0.135,0.196 0.294,0.368 0.478,0.512c0.559,0.438 1.307,0.621 2.045,0.42l14.83,-4.047l4.885,-1.333l0,16.912l-10.572,10.574l-1.414,1.415l-2.828,2.829l-1.414,1.414l-4.31,4.31l7.071,0l0.774,-0.774l1.414,-1.414l2.828,-2.829l1.414,-1.414l9.533,-9.534l15.968,15.965l7.072,0l-20.536,-20.535l0,-18.283l25.486,-6.954c1.24,-0.338 1.971,-1.617 1.632,-2.857l-0.282,-1.034c-0.338,-1.239 -1.616,-1.97 -2.857,-1.632l-0.14,0.038l-7.639,-27.995l0.14,-0.038c1.24,-0.338 1.97,-1.617 1.632,-2.857l-1.071,-3.926c-0.338,-1.239 -1.616,-1.97 -2.856,-1.631l-31.153,8.501l-9.652,2.634l-1.422,0.388c0.51,1.112 0.987,2.241 1.422,3.392Z"
      style="fill-rule:nonzero;"/>
    <path
      d="M106.682,135.588c-3.299,1.339 -6.433,2.998 -9.359,4.947c-2.199,1.465 -4.285,3.085 -6.233,4.855c-6.512,5.914 -11.522,13.442 -14.429,21.945c-0.218,0.638 -0.429,1.279 -0.622,1.927c-1.433,4.787 -2.212,9.855 -2.212,15.107c0,11.653 3.794,22.416 10.203,31.137c9.582,13.037 25.019,21.503 42.438,21.503c17.856,0 33.626,-8.898 43.145,-22.494c0.698,-0.997 1.369,-2.015 1.999,-3.061c0.071,-0.119 0.137,-0.241 0.207,-0.361c1.172,-1.983 2.226,-4.045 3.134,-6.184c0.232,-0.549 0.444,-1.107 0.659,-1.666c0.737,-1.919 1.374,-3.888 1.886,-5.907c0.042,-0.165 0.075,-0.333 0.115,-0.497c0.972,-3.999 1.499,-8.172 1.499,-12.47c0,-4.298 -0.527,-8.471 -1.499,-12.47c-0.533,-2.192 -1.203,-4.33 -2.001,-6.405c-0.426,-1.108 -0.888,-2.198 -1.385,-3.269c-0.286,-0.618 -0.587,-1.227 -0.896,-1.831c-0.542,-1.057 -1.109,-2.098 -1.719,-3.111c-0.63,-1.046 -1.301,-2.064 -1.999,-3.061c-4.707,-6.723 -10.936,-12.301 -18.198,-16.216c-1.904,-1.027 -3.884,-1.93 -5.92,-2.719c-5.903,-2.29 -12.314,-3.56 -19.026,-3.56c-5.954,0 -11.67,1.003 -17.007,2.825c-0.94,0.322 -1.866,0.665 -2.78,1.036Z"
      style="fill-rule:nonzero;"/></g></svg>
