<?xml version="1.0" encoding="UTF-8" standalone="no"?><!DOCTYPE svg PUBLIC "-//W3C//DTD SVG 1.1//EN" "http://www.w3.org/Graphics/SVG/1.1/DTD/svg11.dtd"><svg width="100%" height="100%" viewBox="0 0 89 89" version="1.1" xmlns="http://www.w3.org/2000/svg" xmlns:xlink="http://www.w3.org/1999/xlink" xml:space="preserve" xmlns:serif="http://www.serif.com/" style="fill-rule:evenodd;clip-rule:evenodd;stroke-linejoin:round;stroke-miterlimit:1.41421;"><rect id="Plan-de-travail1" serif:id="Plan de travail1" x="0" y="0" width="88.025" height="88.024" style="fill:none;"/><g><path d="M25.377,1.641c-0.513,0.049 -0.909,0.485 -0.907,1l0,8.875c0,0.549 0.452,1 1,1l17.532,-0.062c0.548,0 1,-0.452 1,-1l0,-2.688l3.156,9.844c0.045,0.321 0.243,0.601 0.531,0.75c0.285,0.145 0.622,0.145 0.906,0l16.375,-5.25c0.322,-0.045 0.602,-0.243 0.75,-0.531c0.001,-0.011 0.001,-0.021 0,-0.032c0.011,0.001 0.021,0.001 0.032,0c0.124,-0.28 0.113,-0.603 -0.032,-0.875l-3.25,-10.218c-0.128,-0.44 -0.542,-0.737 -1,-0.719c-0.096,0.007 -0.191,0.028 -0.281,0.062l-16.656,5.344c-0.214,0.062 -0.401,0.194 -0.531,0.375l0,-4.875c0,-0.548 -0.452,-1 -1,-1l-17.532,0c-0.031,-0.001 -0.062,-0.001 -0.093,0Z"/><path d="M66.351,16.933c-0.149,0.004 -0.296,0.041 -0.429,0.11l-16.371,5.241c-0.319,0.047 -0.597,0.245 -0.744,0.532c-0.005,0.009 -0.009,0.017 -0.014,0.025c0,0.002 -0.001,0.003 -0.002,0.005c-0.14,0.283 -0.138,0.617 0.006,0.899l2.001,6.233c0.047,0.317 0.244,0.592 0.528,0.739c0.01,0.006 0.019,0.011 0.028,0.015c0.284,0.143 0.62,0.142 0.903,-0.003l16.362,-5.231c0.318,-0.047 0.595,-0.245 0.743,-0.531c0.005,-0.008 0.009,-0.017 0.014,-0.026c0.142,-0.284 0.142,-0.619 -0.002,-0.902l-1.992,-6.242c-0.047,-0.32 -0.246,-0.598 -0.534,-0.745c-0.007,-0.004 -0.014,-0.008 -0.021,-0.012c-0.003,-0.001 -0.006,-0.002 -0.009,-0.004c-0.144,-0.072 -0.305,-0.107 -0.467,-0.104l0,0.001Z"/><path d="M69.96,28.233c-0.149,0.004 -0.296,0.042 -0.429,0.111l-16.361,5.24c-0.316,0.047 -0.591,0.243 -0.74,0.526c-0.159,0.289 -0.164,0.64 -0.014,0.935l16.461,51.431c0.132,0.42 0.519,0.7 0.953,0.7c0.103,0 0.206,-0.02 0.304,-0.05l16.68,-5.34c0.523,-0.16 0.815,-0.73 0.648,-1.25l-16.47,-51.439c-0.047,-0.317 -0.244,-0.594 -0.529,-0.742c-0.009,-0.005 -0.019,-0.01 -0.029,-0.015c-0.147,-0.074 -0.309,-0.111 -0.474,-0.107Z"/><path d="M2.73,1.646c-0.549,0 -1,0.452 -1.001,1l0,11.347c-0.052,0.32 0.053,0.645 0.283,0.873c0.005,0.005 0.01,0.011 0.015,0.016c0.003,0.002 0.006,0.005 0.008,0.008c0.227,0.218 0.544,0.317 0.854,0.267l17.187,0c0.318,0.052 0.642,-0.052 0.869,-0.279c0.008,-0.007 0.015,-0.014 0.022,-0.021c0.223,-0.228 0.324,-0.548 0.272,-0.862l0,-11.348c0,-0.549 -0.451,-1 -1,-1l-17.51,0l0.001,-0.001Z"/><path d="M2.73,19.436c-0.007,0 -0.013,0 -0.019,0c-0.549,0 -1,0.452 -1,1c0,0.549 0.451,1 1,1l17.547,0c0.549,0 1.001,-0.451 1.001,-1c0,-0.548 -0.452,-1 -1.001,-1c-0.006,0 -0.012,0 -0.019,0l-17.509,0Z"/><path d="M2.73,25.596c-0.003,0 -0.005,0 -0.007,0c-0.549,0 -1.001,0.452 -1.001,1c0,0.549 0.452,1 1.001,1l17.524,0c0.548,0 1,-0.451 1,-1c0,-0.548 -0.452,-1 -1,-1c-0.003,0 -0.005,0 -0.008,0l-17.509,0Z"/><path d="M2.715,31.862c-0.26,0.005 -0.507,0.109 -0.691,0.293l-0.023,0.022c-0.221,0.227 -0.322,0.546 -0.272,0.859l0,51.6c0.001,0.55 0.452,1 1.001,1l17.51,0c0.548,0 1,-0.45 1,-1l0,-51.596c0.052,-0.318 -0.052,-0.641 -0.278,-0.869c-0.007,-0.007 -0.015,-0.015 -0.022,-0.022l0,-0.001l-0.001,0c-0.227,-0.222 -0.547,-0.323 -0.86,-0.272l-17.186,0c-0.059,-0.01 -0.119,-0.015 -0.178,-0.014Z"/><path d="M25.56,15.086c-0.007,0 -0.013,0 -0.019,0c-0.549,0 -1,0.452 -1,1c0,0.549 0.451,1.001 1,1.001c0.006,0 0.012,-0.001 0.019,-0.001l17.25,0c0.006,0 0.012,0.001 0.019,0.001c0.548,0 1,-0.452 1,-1.001c0,-0.548 -0.452,-1 -1,-1c-0.007,0 -0.013,0 -0.019,0l-17.25,0Z"/><path d="M25.48,36.346c-0.003,0 -0.005,0 -0.007,0c-0.549,0 -1,0.452 -1,1c0,0.549 0.451,1.001 1,1.001c0.002,0 0.004,-0.001 0.007,-0.001l17.509,0c0.003,0 0.005,0.001 0.008,0.001c0.548,0 1,-0.452 1,-1.001c0,-0.548 -0.452,-1 -1,-1c-0.003,0 -0.005,0 -0.008,0l-17.509,0Z"/><path d="M25.465,19.742c-0.258,0.005 -0.504,0.108 -0.687,0.29c-0.009,0.008 -0.018,0.016 -0.026,0.024c-0.223,0.228 -0.324,0.548 -0.272,0.862l0,9.875c-0.053,0.317 0.051,0.641 0.278,0.869c0.007,0.007 0.014,0.015 0.022,0.022l0,0.001c0.227,0.221 0.546,0.322 0.86,0.271l17.186,0c0.317,0.053 0.641,-0.051 0.869,-0.278c0.007,-0.007 0.014,-0.014 0.022,-0.021l0.002,-0.003c0.221,-0.226 0.322,-0.545 0.271,-0.858l0,-9.877c0.052,-0.319 -0.053,-0.645 -0.283,-0.873c-0.005,-0.005 -0.01,-0.01 -0.015,-0.016l-0.007,-0.007c-0.227,-0.219 -0.545,-0.318 -0.857,-0.267l-17.185,0c-0.059,-0.01 -0.119,-0.015 -0.178,-0.014Z"/><path d="M25.465,42.636c-0.258,0 -0.504,0.1 -0.687,0.29c-0.009,0 -0.018,0.01 -0.026,0.02c-0.223,0.23 -0.324,0.55 -0.272,0.86l0,40.83c0,0.55 0.451,1 1,1l17.51,0c0.548,0 1,-0.45 1,-1l0,-40.83c0.052,-0.31 -0.053,-0.64 -0.283,-0.87c-0.005,0 -0.01,-0.01 -0.015,-0.01c-0.001,0 -0.002,0 -0.002,0c-0.002,0 -0.004,0 -0.006,0c-0.227,-0.22 -0.544,-0.32 -0.856,-0.27l-17.185,0c-0.059,-0.01 -0.119,-0.02 -0.178,-0.02Z"/></g></svg>