<?xml version="1.0" encoding="UTF-8" standalone="no"?><!DOCTYPE svg PUBLIC "-//W3C//DTD SVG 1.1//EN" "http://www.w3.org/Graphics/SVG/1.1/DTD/svg11.dtd"><svg width="100%" height="100%" viewBox="0 0 77 93" version="1.1" xmlns="http://www.w3.org/2000/svg" xmlns:xlink="http://www.w3.org/1999/xlink" xml:space="preserve" xmlns:serif="http://www.serif.com/" style="fill-rule:evenodd;clip-rule:evenodd;stroke-linejoin:round;stroke-miterlimit:1.41421;"><rect id="Plan-de-travail1" serif:id="Plan de travail1" x="0" y="0" width="76.237" height="92.451" style="fill:none;"/><path d="M74.511,6.896c-0.863,-0.494 -1.964,-0.19 -2.455,0.673l-8.31,14.591l-2.891,-1.745l-1.769,9.447l0.205,0.123l-1.303,2.286l-7.311,-29.191c-0.25,-1 -1.299,-1.819 -2.33,-1.819l-23.173,0c-1.031,0 -2.082,0.818 -2.334,1.818l-21.82,86.364c-0.253,1 0.385,1.818 1.416,1.818l68.459,0c1.031,0 1.67,-0.818 1.42,-1.818l-13.059,-52.121l3.117,-5.475l0.152,0.092l7.559,-5.951l-3.257,-1.966l8.355,-14.67c0.494,-0.865 0.194,-1.964 -0.671,-2.456Zm-15.365,59.99l-16.725,0l12.946,-22.737l5.197,20.789c0.252,1.001 -0.388,1.948 -1.418,1.948Zm-20.866,0l-24.144,0c-1.031,0 -1.669,-0.994 -1.416,-1.994l14.436,-57.131c0.253,-1 1.303,-1.812 2.334,-1.812l14.431,0c1.032,0 2.081,0.725 2.331,1.725l7.854,31.421l-15.826,27.791Z" style="fill:#010101;fill-rule:nonzero;"/></svg>