<?xml version="1.0" encoding="UTF-8" standalone="no"?><!DOCTYPE svg PUBLIC "-//W3C//DTD SVG 1.1//EN"
  "http://www.w3.org/Graphics/SVG/1.1/DTD/svg11.dtd">
<svg xmlns:serif="http://www.serif.com/" width="100%" height="100%" viewBox="0 0 91 91" version="1.1"
     xmlns="http://www.w3.org/2000/svg" xml:space="preserve"
     style="fill-rule:evenodd;clip-rule:evenodd;stroke-linejoin:round;stroke-miterlimit:1.41421;"><rect id="Plan-de-travail1" serif:id="Plan de travail1" x="0" y="0" width="90.514" height="90.496" style="fill:none;"/>
  <path
    d="M71.531,19.338c-0.332,0 -0.615,-0.117 -0.85,-0.35c-7.1,-6.934 -15.599,-10.4 -25.499,-10.4l-0.051,0c-10.1,0 -18.717,3.584 -25.85,10.75c-0.066,0.033 -0.133,0.117 -0.199,0.25c-0.068,0.033 -0.117,0.084 -0.15,0.15c-1.734,1.732 -3.251,3.6 -4.55,5.6c-0.201,0.268 -0.467,0.449 -0.801,0.551c-0.367,0.066 -0.684,0 -0.949,-0.201c-0.301,-0.199 -0.484,-0.467 -0.551,-0.799c-0.1,-0.334 -0.051,-0.635 0.15,-0.9c1.199,-1.834 2.533,-3.551 4,-5.15l-1.701,-1.699c-0.266,-0.268 -0.398,-0.568 -0.398,-0.9c0,-0.367 0.133,-0.668 0.398,-0.9c0.234,-0.268 0.518,-0.4 0.852,-0.4c0.332,0 0.633,0.133 0.898,0.4l1.751,1.699c7.232,-7 15.85,-10.633 25.85,-10.898l0,-2.453c0,-0.332 0.133,-0.617 0.4,-0.85c0.232,-0.301 0.518,-0.449 0.85,-0.449c0.334,0 0.633,0.148 0.9,0.449c0.232,0.232 0.35,0.518 0.35,0.85l0,2.451c9.701,0.232 18.083,3.633 25.149,10.199l1.701,-1.75c0.266,-0.268 0.566,-0.4 0.9,-0.4c0.332,0 0.633,0.133 0.898,0.4c0.234,0.232 0.352,0.518 0.352,0.85c0,0.334 -0.117,0.65 -0.352,0.951l-2.6,2.6c-0.264,0.232 -0.564,0.349 -0.898,0.349Zm-25.199,17.301l-0.051,0c-1.166,0.066 -2.301,0.516 -3.4,1.35c-1.1,0.832 -1.832,1.867 -2.199,3.1l0.049,-0.051c-0.533,1.334 -0.416,2.451 0.352,3.352c0.666,0.932 1.732,1.35 3.199,1.25c1.166,-0.068 2.301,-0.518 3.4,-1.352c1.066,-0.865 1.799,-1.865 2.199,-3c0.301,-0.832 0.383,-1.549 0.25,-2.148l20.2,-14.15l0,-0.051c0.033,0 0.066,-0.016 0.1,-0.049c-0.332,-0.334 -0.633,-0.65 -0.9,-0.951c-0.266,-0.299 -0.549,-0.6 -0.85,-0.9l-20.099,14.049c-0.601,-0.367 -1.351,-0.517 -2.25,-0.449Zm29.599,-12.051c0.066,-0.334 0.25,-0.6 0.551,-0.801c0.299,-0.199 0.617,-0.25 0.949,-0.148c0.334,0.066 0.6,0.25 0.801,0.549c3.834,5.801 5.85,12.383 6.049,19.75l2.4,0c0.367,0 0.684,0.133 0.951,0.4c0.232,0.232 0.35,0.518 0.35,0.85c0,0.334 -0.117,0.633 -0.35,0.9c-0.268,0.232 -0.584,0.35 -0.951,0.35l-2.4,0c-0.266,9.701 -3.682,18.084 -10.25,25.15l1.801,1.75c0.234,0.232 0.35,0.518 0.35,0.85c0,0.367 -0.115,0.684 -0.35,0.951c-0.266,0.232 -0.566,0.35 -0.9,0.35c-0.332,0 -0.615,-0.117 -0.85,-0.35l-1.85,-1.801c-7.201,7.033 -15.817,10.684 -25.851,10.949l0,2.451c0,0.332 -0.117,0.633 -0.35,0.9c-0.268,0.232 -0.566,0.35 -0.9,0.35c-0.332,0 -0.617,-0.117 -0.85,-0.35c-0.268,-0.268 -0.4,-0.568 -0.4,-0.9l0,-2.451c-9.699,-0.266 -18.066,-3.682 -25.1,-10.25l-1.75,1.852c-0.301,0.232 -0.617,0.35 -0.95,0.35c-0.334,0 -0.617,-0.117 -0.85,-0.35c-0.268,-0.268 -0.4,-0.568 -0.4,-0.9c0,-0.334 0.133,-0.633 0.4,-0.9l1.8,-1.801c-7.034,-7.199 -10.683,-15.816 -10.95,-25.85l-2.449,0c-0.367,0 -0.668,-0.117 -0.9,-0.35c-0.268,-0.268 -0.4,-0.566 -0.4,-0.9c0,-0.332 0.133,-0.617 0.4,-0.85c0.232,-0.268 0.533,-0.4 0.9,-0.4l2.398,0c0.135,-4.166 0.852,-8.066 2.15,-11.699c0.1,-0.334 0.301,-0.566 0.6,-0.701c0.334,-0.166 0.668,-0.182 1,-0.049c0.334,0.1 0.584,0.299 0.75,0.6c0.135,0.334 0.15,0.666 0.051,1c-1.266,3.533 -1.934,7.316 -2,11.35l0,0.8c0,10.066 3.566,18.684 10.7,25.85c0.033,0.033 0.1,0.1 0.199,0.199c0.033,0.033 0.084,0.068 0.15,0.102c7.066,6.932 15.566,10.398 25.5,10.398l0.051,0c10.1,0 18.716,-3.566 25.849,-10.699c0.035,-0.066 0.102,-0.15 0.201,-0.25c0.033,-0.066 0.066,-0.117 0.1,-0.15c6.934,-7.066 10.4,-15.549 10.4,-25.449l0,-0.051c0,-0.266 0,-0.5 0,-0.699l0,-0.051c-0.1,-7 -1.984,-13.299 -5.65,-18.9c-0.199,-0.3 -0.25,-0.617 -0.15,-0.951Zm-7.9,-2.3c0.234,0.234 0.451,0.484 0.65,0.75l0.1,-0.1l0.051,-0.1l19.301,-13.4c0.266,-0.232 0.582,-0.316 0.949,-0.25c0.334,0.033 0.6,0.217 0.801,0.551c0.199,0.266 0.283,0.582 0.25,0.949c-0.102,0.334 -0.283,0.6 -0.551,0.801l-19.15,13.4c4.6,5.633 6.984,12.148 7.15,19.549c0,0.234 0,0.484 0,0.75c0,8.801 -3.084,16.334 -9.25,22.6c-0.1,0.102 -0.199,0.201 -0.301,0.301c-6.3,6.334 -13.933,9.5 -22.899,9.5c-8.799,0 -16.332,-3.066 -22.6,-9.199c-0.1,-0.102 -0.199,-0.201 -0.301,-0.301c-6.333,-6.334 -9.499,-13.967 -9.499,-22.9c0,-0.266 0,-0.516 0,-0.75c0.1,-4.033 0.85,-7.816 2.25,-11.35l-0.15,-0.15l-0.051,0l-0.049,-0.05l-14.051,-9.801c-0.299,-0.232 -0.467,-0.518 -0.5,-0.85c-0.1,-0.367 -0.033,-0.684 0.201,-0.951c0.166,-0.299 0.434,-0.467 0.799,-0.5c0.334,-0.066 0.65,0 0.951,0.201l13.898,9.75c0.168,-0.334 0.334,-0.668 0.501,-1c1.232,-2.066 2.768,-4.15 4.6,-6.25c0.268,-0.301 0.533,-0.6 0.801,-0.9c0.1,-0.1 0.199,-0.199 0.299,-0.301c6.334,-6.299 13.967,-9.449 22.9,-9.449c8.834,0 16.367,3.051 22.601,9.15c0.099,0.1 0.199,0.2 0.299,0.3Zm-18.249,30.5l0,0.051c-0.367,-1.199 -1.1,-2.232 -2.199,-3.1c-1.102,-0.834 -2.234,-1.268 -3.4,-1.301l-0.051,0c-0.9,-0.066 -1.633,0.066 -2.199,0.4l-25.701,-17.949l-0.051,-0.051c-0.066,-0.033 -0.115,-0.051 -0.15,-0.051c-0.199,0.367 -0.383,0.734 -0.549,1.102c-0.166,0.398 -0.334,0.799 -0.5,1.199l25.45,17.85c-0.168,0.6 -0.1,1.301 0.199,2.1c0.367,1.168 1.084,2.168 2.15,3c1.1,0.867 2.232,1.334 3.4,1.4c1.467,0.1 2.533,-0.332 3.199,-1.299c0.769,-0.867 0.902,-1.984 0.402,-3.351Zm3.5,16.4c-2.5,1.066 -5,1.701 -7.5,1.9c-5.434,0.301 -10.868,-1.683 -16.301,-5.949c-0.199,-0.135 -0.398,-0.184 -0.6,-0.15c-0.199,0.033 -0.367,0.133 -0.5,0.299c-0.133,0.168 -0.184,0.352 -0.15,0.551c0.034,0.199 0.135,0.367 0.301,0.5c5.801,4.533 11.584,6.617 17.35,6.25c2.633,-0.166 5.316,-0.85 8.051,-2.051c0.199,-0.1 0.332,-0.232 0.4,-0.398c0.066,-0.201 0.066,-0.4 0,-0.602c-0.102,-0.199 -0.234,-0.332 -0.4,-0.398c-0.202,-0.069 -0.419,-0.052 -0.651,0.048Z"/></svg>
